<svg width="20" height="16" viewBox="0 0 20 16" fill="none" xmlns="http://www.w3.org/2000/svg">
<path d="M19.1558 5.98216L18.2266 5.47109L9.86372 0.82504H9.76151C9.70454 0.800953 9.64542 0.782287 9.58496 0.769287H9.40841H9.24115C9.17766 0.782295 9.11547 0.800954 9.05531 0.82504H8.95309L0.590202 5.47109C0.447199 5.55213 0.328252 5.66966 0.245497 5.81168C0.162742 5.9537 0.119141 6.11513 0.119141 6.2795C0.119141 6.44388 0.162742 6.60531 0.245497 6.74733C0.328252 6.88935 0.447199 7.00687 0.590202 7.08792L2.90394 8.37023V12.7747C2.90394 13.514 3.19763 14.2231 3.72041 14.7458C4.2432 15.2686 4.95224 15.5623 5.69157 15.5623H13.1252C13.8646 15.5623 14.5736 15.2686 15.0964 14.7458C15.6192 14.2231 15.9129 13.514 15.9129 12.7747V8.37023L17.7713 7.32951V9.98705C17.7713 10.2335 17.8692 10.4698 18.0435 10.6441C18.2177 10.8184 18.4541 10.9163 18.7005 10.9163C18.9469 10.9163 19.1833 10.8184 19.3576 10.6441C19.5318 10.4698 19.6297 10.2335 19.6297 9.98705V6.79057C19.6294 6.62592 19.5854 6.4643 19.5021 6.32225C19.4189 6.1802 19.2994 6.06284 19.1558 5.98216ZM14.0545 12.7747C14.0545 13.0211 13.9566 13.2575 13.7823 13.4317C13.608 13.606 13.3717 13.7039 13.1252 13.7039H5.69157C5.44512 13.7039 5.20878 13.606 5.03451 13.4317C4.86025 13.2575 4.76236 13.0211 4.76236 12.7747V9.40165L8.95309 11.7247L9.09247 11.7804H9.1761C9.25323 11.7901 9.33128 11.7901 9.40841 11.7804C9.48553 11.7901 9.56358 11.7901 9.64071 11.7804H9.72434C9.77367 11.77 9.82082 11.7512 9.86372 11.7247L14.0545 9.40165V12.7747ZM9.40841 9.85696L2.95969 6.27021L9.40841 2.68346L15.8571 6.27021L9.40841 9.85696Z" fill="white"/>
</svg>
