<svg width="20" height="17" viewBox="0 0 20 17" fill="none" xmlns="http://www.w3.org/2000/svg">
<path d="M11.9932 7.73481H11.064V6.8056C11.064 6.55916 10.9661 6.32281 10.7918 6.14855C10.6176 5.97429 10.3812 5.87639 10.1348 5.87639C9.88835 5.87639 9.652 5.97429 9.47774 6.14855C9.30348 6.32281 9.20558 6.55916 9.20558 6.8056V7.73481H8.27637C8.02993 7.73481 7.79358 7.83271 7.61932 8.00697C7.44506 8.18123 7.34716 8.41758 7.34716 8.66402C7.34716 8.91046 7.44506 9.14681 7.61932 9.32107C7.79358 9.49533 8.02993 9.59323 8.27637 9.59323H9.20558V10.5224C9.20558 10.7689 9.30348 11.0052 9.47774 11.1795C9.652 11.3538 9.88835 11.4517 10.1348 11.4517C10.3812 11.4517 10.6176 11.3538 10.7918 11.1795C10.9661 11.0052 11.064 10.7689 11.064 10.5224V9.59323H11.9932C12.2397 9.59323 12.476 9.49533 12.6503 9.32107C12.8245 9.14681 12.9224 8.91046 12.9224 8.66402C12.9224 8.41758 12.8245 8.18123 12.6503 8.00697C12.476 7.83271 12.2397 7.73481 11.9932 7.73481ZM17.7171 2.15955C16.7263 1.17896 15.4177 0.584793 14.0273 0.484263C12.6369 0.383733 11.2564 0.78346 10.1348 1.61132C8.95251 0.731949 7.48096 0.333201 6.01646 0.495372C4.55195 0.657544 3.20329 1.36859 2.24205 2.48532C1.28082 3.60205 0.778408 5.04152 0.835999 6.51384C0.89359 7.98617 1.5069 9.382 2.55243 10.4202L8.1277 16.042C8.65038 16.564 9.3589 16.8572 10.0976 16.8572C10.8363 16.8572 11.5449 16.564 12.0675 16.042L17.6428 10.4202C18.1919 9.88375 18.6296 9.24404 18.9306 8.53787C19.2317 7.8317 19.3903 7.07299 19.3972 6.30534C19.4041 5.5377 19.2592 4.77626 18.9709 4.06479C18.6826 3.35331 18.2565 2.70583 17.7171 2.15955ZM16.407 9.09146L10.8317 14.6667C10.7453 14.7538 10.6425 14.8229 10.5293 14.8701C10.4161 14.9173 10.2946 14.9416 10.172 14.9416C10.0493 14.9416 9.92784 14.9173 9.8146 14.8701C9.70137 14.8229 9.5986 14.7538 9.51222 14.6667L3.93696 9.09146C3.20823 8.34655 2.80017 7.34591 2.80017 6.30383C2.80017 5.26175 3.20823 4.26111 3.93696 3.5162C4.67954 2.78304 5.68106 2.37194 6.72459 2.37194C7.76812 2.37194 8.76964 2.78304 9.51222 3.5162C9.5986 3.60329 9.70137 3.67242 9.8146 3.7196C9.92784 3.76677 10.0493 3.79106 10.172 3.79106C10.2946 3.79106 10.4161 3.76677 10.5293 3.7196C10.6425 3.67242 10.7453 3.60329 10.8317 3.5162C11.5743 2.78304 12.5758 2.37194 13.6193 2.37194C14.6629 2.37194 15.6644 2.78304 16.407 3.5162C17.1413 4.26193 17.5529 5.26654 17.5529 6.31312C17.5529 7.35971 17.1413 8.36431 16.407 9.11004V9.09146Z" fill="black"/>
</svg>
