<svg width="116" height="30" viewBox="0 0 116 30" fill="none" xmlns="http://www.w3.org/2000/svg">
<g clip-path="url(#clip0_112_6304)">
<path d="M32.9194 26.0243C32.9194 25.4508 33.1739 25.0136 33.6828 24.7126C34.1989 24.4044 35.016 24.1893 36.1342 24.0675C36.1342 23.9026 36.1162 23.7413 36.0804 23.5837C36.0517 23.426 35.9944 23.2862 35.9084 23.1643C35.8295 23.0425 35.722 22.9457 35.5858 22.874C35.4496 22.7952 35.274 22.7558 35.059 22.7558C34.7508 22.7558 34.4641 22.8131 34.1989 22.9278C33.9408 23.0425 33.7079 23.1715 33.5 23.3149L33.1452 22.702C33.3889 22.5443 33.6864 22.3938 34.0376 22.2505C34.3888 22.0999 34.7759 22.0247 35.1988 22.0247C35.8367 22.0247 36.299 22.2218 36.5857 22.616C36.8724 23.0031 37.0158 23.5227 37.0158 24.175V27.379H36.2847L36.2094 26.7554H36.1879C35.937 26.9632 35.6647 27.1424 35.3708 27.2929C35.0841 27.4363 34.7795 27.508 34.4569 27.508C34.0125 27.508 33.6434 27.379 33.3495 27.1209C33.0628 26.8629 32.9194 26.4973 32.9194 26.0243ZM33.7903 25.9598C33.7903 26.2608 33.8763 26.4758 34.0483 26.6048C34.2275 26.7339 34.4462 26.7984 34.7042 26.7984C34.9551 26.7984 35.1916 26.741 35.4138 26.6263C35.6432 26.5045 35.8833 26.3289 36.1342 26.0995V24.6481C35.6969 24.7054 35.3278 24.7735 35.0267 24.8523C34.7257 24.9312 34.482 25.0244 34.2956 25.1319C34.1164 25.2394 33.9874 25.3648 33.9086 25.5082C33.8297 25.6444 33.7903 25.7949 33.7903 25.9598Z" fill="#636C8B"/>
<path d="M43.132 27.508C42.6589 27.508 42.2002 27.4184 41.7558 27.2392C41.3186 27.06 40.9315 26.8055 40.5946 26.4758L41.3257 25.6265C41.5766 25.863 41.8633 26.0565 42.1859 26.207C42.5084 26.3504 42.831 26.4221 43.1535 26.4221C43.5549 26.4221 43.8595 26.3396 44.0674 26.1748C44.2752 26.0099 44.3792 25.7913 44.3792 25.5189C44.3792 25.2251 44.2752 25.0136 44.0674 24.8846C43.8667 24.7556 43.6087 24.623 43.2933 24.4868L42.3256 24.0675C42.0963 23.9671 41.8705 23.8381 41.6483 23.6804C41.4332 23.5227 41.2541 23.322 41.1107 23.0783C40.9745 22.8346 40.9064 22.5408 40.9064 22.1967C40.9064 21.824 41.0068 21.4907 41.2075 21.1968C41.4153 20.8958 41.6949 20.6592 42.0461 20.4872C42.4045 20.308 42.813 20.2184 43.2718 20.2184C43.6803 20.2184 44.0746 20.3008 44.4544 20.4657C44.8343 20.6234 45.1605 20.8384 45.4328 21.1108L44.7985 21.9064C44.5763 21.72 44.3398 21.5731 44.0889 21.4656C43.8452 21.3581 43.5728 21.3043 43.2718 21.3043C42.9421 21.3043 42.6733 21.3796 42.4654 21.5301C42.2647 21.6735 42.1644 21.8742 42.1644 22.1322C42.1644 22.3114 42.2145 22.4619 42.3149 22.5838C42.4224 22.6984 42.5622 22.7988 42.7342 22.8848C42.9062 22.9636 43.089 23.0425 43.2825 23.1213L44.2394 23.5191C44.6551 23.6983 44.9956 23.9349 45.2608 24.2287C45.526 24.5155 45.6586 24.9133 45.6586 25.4222C45.6586 25.8021 45.5583 26.1497 45.3576 26.4651C45.1569 26.7805 44.8666 27.0349 44.4867 27.2284C44.114 27.4148 43.6624 27.508 43.132 27.508Z" fill="#636C8B"/>
<path d="M49.1413 27.508C48.661 27.508 48.2274 27.4005 47.8403 27.1854C47.4605 26.9632 47.1558 26.6479 46.9265 26.2393C46.7043 25.8236 46.5932 25.3254 46.5932 24.7448C46.5932 24.1571 46.715 23.6589 46.9587 23.2504C47.2024 22.8346 47.525 22.5192 47.9264 22.3042C48.3349 22.082 48.7721 21.9709 49.2381 21.9709C49.5749 21.9709 49.8688 22.0283 50.1197 22.1429C50.3705 22.2576 50.5927 22.3974 50.7863 22.5623L50.1842 23.3686C50.048 23.2468 49.9082 23.1536 49.7649 23.0891C49.6215 23.0174 49.4674 22.9816 49.3026 22.9816C48.8797 22.9816 48.532 23.1428 48.2597 23.4654C47.9945 23.7879 47.8618 24.2144 47.8618 24.7448C47.8618 25.2681 47.9909 25.691 48.2489 26.0135C48.5141 26.3361 48.8546 26.4973 49.2703 26.4973C49.4782 26.4973 49.6717 26.4543 49.8509 26.3683C50.0372 26.2751 50.2057 26.1676 50.3562 26.0458L50.8615 26.8629C50.6178 27.0779 50.3455 27.2392 50.0444 27.3467C49.7434 27.4542 49.4423 27.508 49.1413 27.508Z" fill="#636C8B"/>
<path d="M52.011 27.379V22.0999H53.0324L53.1184 23.0353H53.1614C53.3478 22.6913 53.5736 22.4297 53.8388 22.2505C54.104 22.0641 54.3764 21.9709 54.6559 21.9709C54.9068 21.9709 55.1075 22.0068 55.258 22.0784L55.043 23.1536C54.9498 23.1249 54.8638 23.1034 54.7849 23.0891C54.7061 23.0747 54.6093 23.0676 54.4946 23.0676C54.2868 23.0676 54.0682 23.15 53.8388 23.3149C53.6094 23.4726 53.4123 23.7521 53.2475 24.1535V27.379H52.011Z" fill="#636C8B"/>
<path d="M56.1294 27.379V22.0999H57.3658V27.379H56.1294ZM56.753 21.1753C56.5308 21.1753 56.3516 21.1108 56.2154 20.9818C56.0792 20.8528 56.0111 20.6807 56.0111 20.4657C56.0111 20.2578 56.0792 20.0894 56.2154 19.9604C56.3516 19.8314 56.5308 19.7668 56.753 19.7668C56.9752 19.7668 57.1544 19.8314 57.2906 19.9604C57.4267 20.0894 57.4948 20.2578 57.4948 20.4657C57.4948 20.6807 57.4267 20.8528 57.2906 20.9818C57.1544 21.1108 56.9752 21.1753 56.753 21.1753Z" fill="#636C8B"/>
<path d="M61.6097 27.508C61.1079 27.508 60.6277 27.2786 60.169 26.8199H60.1367L60.0292 27.379H59.0508V19.7883H60.2872V21.7451L60.255 22.6268C60.4772 22.4332 60.7209 22.2755 60.9861 22.1537C61.2513 22.0318 61.5165 21.9709 61.7817 21.9709C62.4411 21.9709 62.9536 22.2146 63.3192 22.702C63.6847 23.1894 63.8675 23.8381 63.8675 24.6481C63.8675 25.2501 63.76 25.7662 63.5449 26.1963C63.3299 26.6192 63.0504 26.9453 62.7063 27.1747C62.3694 27.3969 62.0039 27.508 61.6097 27.508ZM61.3516 26.4866C61.7028 26.4866 61.9967 26.3325 62.2333 26.0243C62.4698 25.716 62.5881 25.2645 62.5881 24.6696C62.5881 24.1392 62.4985 23.727 62.3193 23.4331C62.1401 23.1393 61.8498 22.9923 61.4484 22.9923C61.0757 22.9923 60.6886 23.1894 60.2872 23.5837V26.0458C60.4736 26.2035 60.6564 26.3181 60.8356 26.3898C61.0219 26.4543 61.1939 26.4866 61.3516 26.4866Z" fill="#636C8B"/>
<path d="M67.0658 27.508C66.4064 27.508 65.8796 27.2643 65.4854 26.7769C65.0911 26.2895 64.894 25.6121 64.894 24.7448C64.894 24.1714 64.9979 23.6768 65.2058 23.2611C65.4208 22.8454 65.7004 22.5264 66.0444 22.3042C66.3885 22.082 66.7505 21.9709 67.1303 21.9709C67.4314 21.9709 67.6858 22.0247 67.8937 22.1322C68.1087 22.2325 68.3166 22.3723 68.5173 22.5515L68.4743 21.7021V19.7883H69.7107V27.379H68.6893L68.6033 26.8091H68.5603C68.3668 27.0027 68.141 27.1675 67.8829 27.3037C67.6249 27.4399 67.3525 27.508 67.0658 27.508ZM67.3669 26.4866C67.7611 26.4866 68.1302 26.2895 68.4743 25.8952V23.4331C68.2951 23.2683 68.1159 23.1536 67.9367 23.0891C67.7575 23.0246 67.5783 22.9923 67.3991 22.9923C67.0622 22.9923 66.772 23.1464 66.5283 23.4546C66.2917 23.7557 66.1735 24.1822 66.1735 24.7341C66.1735 25.3003 66.2774 25.734 66.4852 26.035C66.6931 26.3361 66.987 26.4866 67.3669 26.4866Z" fill="#636C8B"/>
<path d="M73.3835 24.7771C73.3835 24.3398 73.4516 23.9528 73.5878 23.6159C73.7239 23.2719 73.9067 22.9816 74.1361 22.745C74.3654 22.5085 74.6307 22.3293 74.9317 22.2075C75.2399 22.0856 75.5625 22.0247 75.8993 22.0247C76.2434 22.0247 76.5373 22.0892 76.781 22.2182C77.0318 22.3401 77.2469 22.4834 77.4261 22.6483L76.9852 23.2181C76.8276 23.0819 76.6627 22.9708 76.4907 22.8848C76.3258 22.7988 76.1395 22.7558 75.9316 22.7558C75.6951 22.7558 75.4764 22.806 75.2757 22.9063C75.0751 22.9995 74.903 23.1357 74.7597 23.3149C74.6163 23.4941 74.5016 23.7091 74.4156 23.96C74.3368 24.2037 74.2974 24.476 74.2974 24.7771C74.2974 25.0781 74.3368 25.3505 74.4156 25.5942C74.4945 25.8379 74.602 26.0493 74.7382 26.2285C74.8815 26.4006 75.0536 26.5368 75.2542 26.6371C75.4549 26.7303 75.6736 26.7769 75.9101 26.7769C76.161 26.7769 76.3867 26.7267 76.5874 26.6263C76.7953 26.5188 76.9781 26.3934 77.1358 26.25L77.5336 26.8306C77.297 27.0385 77.0318 27.2033 76.738 27.3252C76.4513 27.4471 76.1502 27.508 75.8348 27.508C75.4908 27.508 75.1682 27.4471 74.8672 27.3252C74.5661 27.2033 74.3045 27.0277 74.0823 26.7984C73.8673 26.5618 73.6953 26.2751 73.5662 25.9382C73.4444 25.5942 73.3835 25.2071 73.3835 24.7771Z" fill="#636C8B"/>
<path d="M78.1633 24.7771C78.1633 24.3398 78.2278 23.9528 78.3568 23.6159C78.493 23.2719 78.6722 22.9816 78.8944 22.745C79.1166 22.5085 79.3711 22.3293 79.6578 22.2075C79.9516 22.0856 80.2599 22.0247 80.5824 22.0247C80.9049 22.0247 81.2096 22.0856 81.4963 22.2075C81.7902 22.3293 82.0482 22.5085 82.2704 22.745C82.4926 22.9816 82.6682 23.2719 82.7972 23.6159C82.9334 23.9528 83.0015 24.3398 83.0015 24.7771C83.0015 25.2071 82.9334 25.5942 82.7972 25.9382C82.6682 26.2751 82.4926 26.5618 82.2704 26.7984C82.0482 27.0277 81.7902 27.2033 81.4963 27.3252C81.2096 27.4471 80.9049 27.508 80.5824 27.508C80.2599 27.508 79.9516 27.4471 79.6578 27.3252C79.3711 27.2033 79.1166 27.0277 78.8944 26.7984C78.6722 26.5618 78.493 26.2751 78.3568 25.9382C78.2278 25.5942 78.1633 25.2071 78.1633 24.7771ZM79.0772 24.7771C79.0772 25.0781 79.113 25.3505 79.1847 25.5942C79.2564 25.8379 79.3567 26.0493 79.4857 26.2285C79.6219 26.4006 79.7832 26.5368 79.9696 26.6371C80.1559 26.7303 80.3602 26.7769 80.5824 26.7769C80.8046 26.7769 81.0089 26.7303 81.1952 26.6371C81.3816 26.5368 81.5393 26.4006 81.6683 26.2285C81.8045 26.0493 81.9084 25.8379 81.9801 25.5942C82.0518 25.3505 82.0876 25.0781 82.0876 24.7771C82.0876 24.476 82.0518 24.2037 81.9801 23.96C81.9084 23.7091 81.8045 23.4941 81.6683 23.3149C81.5393 23.1357 81.3816 22.9995 81.1952 22.9063C81.0089 22.806 80.8046 22.7558 80.5824 22.7558C80.3602 22.7558 80.1559 22.806 79.9696 22.9063C79.7832 22.9995 79.6219 23.1357 79.4857 23.3149C79.3567 23.4941 79.2564 23.7091 79.1847 23.96C79.113 24.2037 79.0772 24.476 79.0772 24.7771Z" fill="#636C8B"/>
<path d="M84.4851 22.1537H85.2162L85.2915 22.9063H85.3238C85.5531 22.6554 85.8004 22.4476 86.0656 22.2827C86.338 22.1107 86.6319 22.0247 86.9472 22.0247C87.3486 22.0247 87.6604 22.1143 87.8826 22.2935C88.112 22.4655 88.2804 22.7092 88.388 23.0246C88.6603 22.7235 88.9327 22.4834 89.2051 22.3042C89.4846 22.1179 89.7857 22.0247 90.1082 22.0247C90.6458 22.0247 91.0436 22.1967 91.3016 22.5408C91.5668 22.8848 91.6994 23.3937 91.6994 24.0675V27.379H90.8178V24.1857C90.8178 23.6912 90.739 23.3364 90.5813 23.1213C90.4236 22.8991 90.1799 22.788 89.8502 22.788C89.4559 22.788 89.0187 23.0568 88.5385 23.5944V27.379H87.6569V24.1857C87.6569 23.6912 87.578 23.3364 87.4203 23.1213C87.2626 22.8991 87.0153 22.788 86.6785 22.788C86.2842 22.788 85.847 23.0568 85.3668 23.5944V27.379H84.4851V22.1537Z" fill="#636C8B"/>
<path d="M94.3884 27.8198V29.583H93.5068V22.1537H94.2379L94.3132 22.7558H94.3454C94.582 22.5551 94.84 22.3831 95.1195 22.2397C95.4062 22.0964 95.7037 22.0247 96.0119 22.0247C96.3488 22.0247 96.6463 22.0892 96.9043 22.2182C97.1623 22.3401 97.3774 22.5192 97.5494 22.7558C97.7214 22.9851 97.8504 23.2647 97.9364 23.5944C98.0296 23.917 98.0762 24.2825 98.0762 24.6911C98.0762 25.1355 98.0153 25.5333 97.8934 25.8845C97.7716 26.2285 97.6067 26.5224 97.3989 26.7661C97.191 27.0098 96.9509 27.1962 96.6785 27.3252C96.4061 27.4471 96.1194 27.508 95.8184 27.508C95.5747 27.508 95.331 27.4542 95.0873 27.3467C94.8507 27.2392 94.6106 27.0922 94.3669 26.9059L94.3884 27.8198ZM94.3884 26.2178C94.625 26.4185 94.8543 26.5618 95.0765 26.6479C95.2987 26.7267 95.4958 26.7661 95.6679 26.7661C95.8829 26.7661 96.08 26.7195 96.2592 26.6263C96.4456 26.526 96.6033 26.3898 96.7323 26.2178C96.8685 26.0386 96.9724 25.82 97.0441 25.5619C97.1229 25.3039 97.1623 25.0136 97.1623 24.6911C97.1623 24.4044 97.1372 24.1427 97.0871 23.9062C97.0369 23.6697 96.9545 23.469 96.8398 23.3041C96.7323 23.1321 96.5889 22.9995 96.4097 22.9063C96.2377 22.8131 96.0298 22.7665 95.7861 22.7665C95.5639 22.7665 95.3382 22.8275 95.1088 22.9493C94.8866 23.0712 94.6465 23.2468 94.3884 23.4761V26.2178Z" fill="#636C8B"/>
<path d="M99.173 26.0243C99.173 25.4508 99.4275 25.0136 99.9364 24.7126C100.452 24.4044 101.27 24.1893 102.388 24.0675C102.388 23.9026 102.37 23.7413 102.334 23.5837C102.305 23.426 102.248 23.2862 102.162 23.1643C102.083 23.0425 101.976 22.9457 101.839 22.874C101.703 22.7952 101.528 22.7558 101.313 22.7558C101.004 22.7558 100.718 22.8131 100.452 22.9278C100.194 23.0425 99.9615 23.1715 99.7536 23.3149L99.3988 22.702C99.6425 22.5443 99.94 22.3938 100.291 22.2505C100.642 22.0999 101.029 22.0247 101.452 22.0247C102.09 22.0247 102.553 22.2218 102.839 22.616C103.126 23.0031 103.269 23.5227 103.269 24.175V27.379H102.538L102.463 26.7554H102.442C102.191 26.9632 101.918 27.1424 101.624 27.2929C101.338 27.4363 101.033 27.508 100.711 27.508C100.266 27.508 99.897 27.379 99.6031 27.1209C99.3164 26.8629 99.173 26.4973 99.173 26.0243ZM100.044 25.9598C100.044 26.2608 100.13 26.4758 100.302 26.6048C100.481 26.7339 100.7 26.7984 100.958 26.7984C101.209 26.7984 101.445 26.741 101.667 26.6263C101.897 26.5045 102.137 26.3289 102.388 26.0995V24.6481C101.951 24.7054 101.581 24.7735 101.28 24.8523C100.979 24.9312 100.736 25.0244 100.549 25.1319C100.37 25.2394 100.241 25.3648 100.162 25.5082C100.083 25.6444 100.044 25.7949 100.044 25.9598Z" fill="#636C8B"/>
<path d="M105.04 22.1537H105.771L105.847 22.9063H105.879C106.13 22.6554 106.391 22.4476 106.664 22.2827C106.943 22.1107 107.266 22.0247 107.632 22.0247C108.183 22.0247 108.585 22.1967 108.836 22.5408C109.094 22.8848 109.223 23.3937 109.223 24.0675V27.379H108.341V24.1857C108.341 23.6912 108.262 23.3364 108.105 23.1213C107.947 22.8991 107.696 22.788 107.352 22.788C107.08 22.788 106.839 22.8561 106.632 22.9923C106.424 23.1285 106.187 23.3292 105.922 23.5944V27.379H105.04V22.1537Z" fill="#636C8B"/>
<path d="M110.673 28.8197C110.73 28.834 110.795 28.8483 110.866 28.8627C110.938 28.8842 111.006 28.8949 111.071 28.8949C111.372 28.8949 111.615 28.7874 111.802 28.5724C111.995 28.3645 112.146 28.0993 112.253 27.7768L112.372 27.3897L110.275 22.1537H111.189L112.253 25.0459C112.332 25.2752 112.415 25.5189 112.501 25.777C112.594 26.0278 112.68 26.2751 112.759 26.5188H112.802C112.881 26.2823 112.956 26.035 113.027 25.777C113.099 25.5189 113.171 25.2752 113.242 25.0459L114.178 22.1537H115.038L113.07 27.809C112.977 28.0671 112.873 28.3072 112.759 28.5294C112.644 28.7516 112.508 28.9415 112.35 29.0992C112.192 29.2641 112.013 29.3931 111.813 29.4863C111.612 29.5794 111.379 29.626 111.114 29.626C110.992 29.626 110.881 29.6153 110.78 29.5938C110.68 29.5794 110.587 29.5544 110.501 29.5185L110.673 28.8197Z" fill="#636C8B"/>
<path d="M40.1055 11.9827C40.1055 11.3978 39.9507 10.9505 39.6755 10.6237C39.383 10.2968 39.0218 10.0388 38.5917 9.84955C38.1617 9.66032 37.6972 9.5055 37.1983 9.40228C36.6822 9.29907 36.2178 9.19585 35.7877 9.05823C35.3576 8.92061 34.9964 8.76579 34.7212 8.55936C34.4287 8.35293 34.2911 8.06049 34.2911 7.64763C34.2911 7.40679 34.3427 7.20036 34.4631 7.02834C34.5663 6.85631 34.7212 6.70149 34.9276 6.58107C35.134 6.46065 35.3576 6.37464 35.6157 6.30583C35.8737 6.25422 36.149 6.21982 36.4414 6.21982C36.9575 6.21982 37.4219 6.34024 37.8348 6.54667C38.2477 6.7531 38.5229 7.06274 38.6605 7.4584C38.7293 7.69923 38.8154 7.83685 38.8842 7.90566C38.953 7.97447 39.039 7.99168 39.1594 7.99168C39.2626 7.99168 39.3314 7.97447 39.4002 7.94007C39.469 7.90566 39.5207 7.85406 39.5551 7.80245C39.5895 7.75084 39.6067 7.69923 39.6239 7.64763C39.6239 7.61322 39.6411 7.57882 39.6411 7.54441C39.6411 7.51001 39.6067 7.38959 39.5551 7.14875C39.4862 6.90792 39.3486 6.66708 39.1422 6.39184C38.9186 6.13381 38.5917 5.89297 38.1617 5.68654C37.7144 5.48011 37.1295 5.35969 36.3898 5.35969C35.6845 5.35969 35.134 5.46291 34.7212 5.66934C34.3083 5.87577 33.9814 6.13381 33.775 6.40905C33.5514 6.68429 33.4138 6.95953 33.345 7.23477C33.2761 7.51001 33.2589 7.71644 33.2589 7.85406C33.2589 8.23251 33.3277 8.55936 33.4998 8.8346C33.6718 9.10984 33.861 9.33347 34.0847 9.4883C34.2567 9.62592 34.4287 9.72913 34.6179 9.79794C34.79 9.88395 35.0136 9.96997 35.2544 10.0388C35.4953 10.1076 35.7705 10.1936 36.0974 10.2624C36.4242 10.3484 36.8199 10.4516 37.2671 10.5721C37.4047 10.6065 37.5596 10.6581 37.766 10.7269C37.9724 10.7957 38.1617 10.8817 38.3509 11.0021C38.5229 11.1225 38.6777 11.2774 38.8154 11.4494C38.953 11.6386 39.0218 11.8622 39.0218 12.1375C39.0218 12.3439 38.9702 12.5503 38.867 12.7568C38.7637 12.9632 38.6261 13.1352 38.4369 13.2901C38.2305 13.4621 37.9896 13.5825 37.68 13.6857C37.3703 13.7889 37.0091 13.8233 36.5962 13.8233C36.4414 13.8233 36.2522 13.8233 36.0285 13.7889C35.8049 13.7717 35.5813 13.7029 35.3576 13.5997C35.1168 13.4965 34.8932 13.3589 34.6867 13.1524C34.4631 12.946 34.2739 12.6708 34.1363 12.3267C34.0675 12.1891 34.0158 12.0515 33.947 11.9311C33.8782 11.8278 33.7578 11.759 33.603 11.759C33.4654 11.759 33.345 11.8106 33.2417 11.8966C33.1385 11.9827 33.0869 12.1031 33.0869 12.2407C33.0869 12.4987 33.1729 12.7912 33.345 13.1008C33.517 13.4105 33.7406 13.6857 34.0158 13.9265C34.1191 14.0298 34.2395 14.1158 34.3771 14.2018C34.5147 14.305 34.6867 14.3738 34.8932 14.4426C35.0996 14.5114 35.3232 14.5802 35.5985 14.6146C35.8565 14.6663 36.1662 14.6835 36.5274 14.6835C37.3187 14.6835 37.938 14.5802 38.4197 14.3738C38.9014 14.1674 39.2626 13.9093 39.5035 13.6169C39.7443 13.3245 39.9163 13.032 39.9851 12.7224C40.0539 12.4127 40.1055 12.1719 40.1055 11.9827Z" fill="#026C97"/>
<path d="M43.4127 13.8233V2.83092C43.4127 2.72771 43.3955 2.62449 43.3955 2.52128C43.3955 2.41806 43.3783 2.33205 43.3439 2.24604C43.3095 2.16003 43.2579 2.09121 43.1891 2.03961C43.1203 1.988 43.0171 1.95359 42.8794 1.95359C42.7418 1.95359 42.6558 1.988 42.587 2.03961C42.5182 2.09121 42.4666 2.16003 42.4322 2.24604C42.3978 2.33205 42.3634 2.41806 42.3634 2.52128C42.3634 2.62449 42.3634 2.72771 42.3634 2.83092V13.8233C42.3634 13.9265 42.3634 14.0298 42.3634 14.133C42.3634 14.2362 42.3978 14.3222 42.4322 14.4082C42.4666 14.4942 42.5182 14.563 42.587 14.6146C42.6558 14.6663 42.759 14.6835 42.8966 14.6835C43.1375 14.6835 43.2923 14.5974 43.3439 14.4082C43.3783 14.219 43.4127 14.0298 43.4127 13.8233Z" fill="#026C97"/>
<path d="M47.2833 13.8233V6.23702C47.2833 6.15101 47.2661 6.04779 47.2661 5.94458C47.2661 5.84136 47.2489 5.75535 47.2145 5.66934C47.1801 5.58333 47.1285 5.51452 47.0597 5.4457C46.9908 5.3941 46.8876 5.35969 46.7672 5.35969C46.6296 5.35969 46.5264 5.3941 46.4576 5.4457C46.3888 5.49731 46.3371 5.56612 46.3027 5.65214C46.2683 5.73815 46.2339 5.82416 46.2339 5.92738C46.2339 6.03059 46.2339 6.13381 46.2339 6.23702V13.8233C46.2339 13.9265 46.2339 14.0298 46.2339 14.133C46.2339 14.2362 46.2683 14.3222 46.3027 14.4082C46.3371 14.4942 46.3888 14.563 46.4576 14.6146C46.5264 14.6663 46.6296 14.6835 46.7672 14.6835C47.008 14.6835 47.1629 14.5974 47.2145 14.4082C47.2489 14.219 47.2833 14.0298 47.2833 13.8233ZM47.4381 2.96854C47.4381 2.77932 47.3693 2.62449 47.2317 2.48687C47.0941 2.36645 46.9392 2.29765 46.7672 2.29765C46.5608 2.29765 46.406 2.36645 46.2855 2.48687C46.1479 2.62449 46.0963 2.77932 46.0963 2.96854C46.0963 3.15777 46.1479 3.31259 46.2855 3.45021C46.406 3.58783 46.5608 3.63944 46.7672 3.63944C46.9392 3.63944 47.0941 3.58783 47.2317 3.45021C47.3693 3.31259 47.4381 3.15777 47.4381 2.96854Z" fill="#026C97"/>
<path d="M56.8823 2.81372V7.01113C56.7791 6.87351 56.6415 6.71869 56.4866 6.52946C56.3146 6.34024 56.1082 6.15101 55.8501 5.97898C55.5921 5.80696 55.2825 5.66934 54.904 5.54892C54.5255 5.4285 54.0783 5.35969 53.5622 5.35969C52.7881 5.35969 52.1516 5.51452 51.6355 5.80696C51.1194 6.0994 50.7238 6.47786 50.4141 6.92512C50.1045 7.37239 49.8809 7.87126 49.7604 8.40454C49.6228 8.95502 49.5712 9.47109 49.5712 9.95276C49.5712 10.4688 49.6228 11.0193 49.7604 11.5698C49.8981 12.1203 50.1217 12.6364 50.4313 13.1008C50.741 13.5653 51.1367 13.9437 51.6527 14.2362C52.1688 14.5458 52.7881 14.6835 53.545 14.6835C54.0267 14.6835 54.4395 14.6318 54.8008 14.5286C55.162 14.4254 55.4717 14.2878 55.7469 14.1158C56.0222 13.9437 56.2458 13.7717 56.4178 13.5997C56.5898 13.4277 56.7447 13.2556 56.8823 13.118V13.8233C56.8823 13.9265 56.8823 14.0298 56.8995 14.133C56.8995 14.2362 56.9339 14.3222 56.9683 14.4082C57.0027 14.4942 57.0543 14.563 57.1231 14.6146C57.1919 14.6663 57.2779 14.6835 57.4156 14.6835C57.6564 14.6835 57.8112 14.5974 57.8628 14.4082C57.8972 14.219 57.9316 14.0298 57.9316 13.8233V2.81372C57.9316 2.72771 57.9144 2.62449 57.9144 2.52128C57.9144 2.41806 57.8972 2.33205 57.8628 2.24604C57.8284 2.16003 57.7768 2.09121 57.708 2.03961C57.6392 1.988 57.536 1.95359 57.4156 1.95359C57.2779 1.95359 57.1747 1.988 57.1059 2.03961C57.0371 2.09121 56.9855 2.16003 56.9511 2.24604C56.9167 2.33205 56.8823 2.41806 56.8823 2.52128C56.8823 2.62449 56.8823 2.72771 56.8823 2.81372ZM50.6722 10.0044C50.6722 9.38508 50.741 8.8518 50.913 8.37013C51.0678 7.90566 51.2743 7.51001 51.5495 7.18316C51.8248 6.87351 52.1344 6.63268 52.4956 6.46065C52.8569 6.30583 53.2354 6.21982 53.6482 6.21982C53.9579 6.21982 54.3191 6.28863 54.6976 6.39184C55.076 6.51226 55.4201 6.71869 55.7469 6.99393C56.0566 7.28637 56.3318 7.68203 56.5554 8.1637C56.7619 8.64537 56.8823 9.26466 56.8823 9.98717C56.8823 10.4688 56.8479 10.8645 56.7791 11.1913C56.7103 11.5354 56.6415 11.8106 56.5382 12.0515C56.435 12.2923 56.3318 12.4815 56.2114 12.6364C56.0738 12.7912 55.9534 12.9288 55.8501 13.032C55.6437 13.2212 55.4545 13.3589 55.2481 13.4621C55.0416 13.5653 54.8352 13.6513 54.646 13.7029C54.4567 13.7545 54.2847 13.7889 54.1127 13.8061C53.9407 13.8233 53.8202 13.8233 53.717 13.8233C53.3386 13.8233 52.9601 13.7545 52.5989 13.5997C52.2204 13.4449 51.8936 13.204 51.6183 12.8944C51.3259 12.5847 51.1022 12.1891 50.9302 11.7074C50.7582 11.2257 50.6722 10.6581 50.6722 10.0044Z" fill="#026C97"/>
<path d="M61.3289 10.142H67.1605C67.2981 10.142 67.4186 10.142 67.539 10.142C67.6422 10.142 67.7454 10.1076 67.8486 10.056C67.9346 10.0216 68.0034 9.93556 68.0551 9.83235C68.1067 9.72913 68.1411 9.59151 68.1411 9.40228C68.1411 9.38508 68.1239 9.26466 68.1239 9.05823C68.1067 8.8518 68.0551 8.59377 67.9862 8.28412C67.9174 7.99168 67.797 7.66483 67.6422 7.32078C67.4702 6.97673 67.2465 6.66708 66.9713 6.37464C66.6789 6.0994 66.3176 5.85856 65.8875 5.65214C65.4403 5.46291 64.907 5.35969 64.2877 5.35969C63.634 5.35969 63.0491 5.48011 62.5502 5.70374C62.0342 5.92738 61.6213 6.23702 61.2773 6.64988C60.9332 7.06274 60.658 7.54441 60.4859 8.11209C60.3139 8.69698 60.2279 9.33347 60.2279 10.0216C60.2279 10.6753 60.2967 11.2946 60.4687 11.8622C60.6236 12.4299 60.8644 12.9288 61.2085 13.3417C61.5525 13.7545 61.9654 14.0814 62.4814 14.3222C62.9975 14.563 63.5996 14.6835 64.2877 14.6835C65.0102 14.6835 65.6123 14.563 66.094 14.305C66.5756 14.0642 66.9541 13.7717 67.2293 13.4621C67.5046 13.1524 67.6938 12.8428 67.797 12.5503C67.9002 12.2579 67.969 12.0687 67.969 11.9999C67.969 11.8966 67.9174 11.7762 67.8314 11.673C67.7282 11.5698 67.6078 11.5182 67.453 11.5182C67.2121 11.5182 67.0401 11.6558 66.9541 11.8966C66.7649 12.3611 66.5412 12.7224 66.3004 12.9804C66.0596 13.2384 65.8015 13.4277 65.5607 13.5481C65.3027 13.6857 65.0618 13.7545 64.8382 13.7889C64.6145 13.8233 64.4425 13.8233 64.3221 13.8233C63.8232 13.8233 63.3932 13.7373 63.0147 13.5481C62.6363 13.3761 62.3266 13.118 62.0858 12.7912C61.8449 12.4643 61.6557 12.0687 61.5353 11.6214C61.3977 11.1741 61.3289 10.6925 61.3289 10.142ZM67.0401 9.28187H61.3461C61.3805 9.02383 61.4493 8.71418 61.5525 8.35293C61.6557 8.00888 61.8277 7.66483 62.0686 7.35518C62.2922 7.04554 62.5847 6.7703 62.9459 6.54667C63.29 6.34024 63.7372 6.21982 64.2533 6.21982C64.8726 6.21982 65.3715 6.35744 65.7327 6.59827C66.094 6.85631 66.3692 7.14875 66.5584 7.4756C66.7477 7.81965 66.8681 8.1465 66.9197 8.49055C66.9713 8.8346 67.0057 9.10984 67.0401 9.28187Z" fill="#026C97"/>
<path d="M71.9588 7.74889C71.9588 7.4633 72.1016 7.23651 72.3872 7.07692C72.6728 6.92573 73.0172 6.84173 73.4036 6.84173C74.1175 6.84173 74.6551 7.10212 75.0079 7.6061C75.3607 8.11848 75.7639 8.37047 76.209 8.37047C76.503 8.37047 76.7382 8.28647 76.9062 8.11008C77.0742 7.93369 77.1582 7.71529 77.1582 7.45491C77.1582 6.96772 76.8222 6.49734 76.167 6.04376C75.5035 5.59018 74.6131 5.36339 73.5044 5.36339C72.2864 5.36339 71.3708 5.63218 70.7661 6.16976C70.1613 6.70733 69.8589 7.32891 69.8589 8.02608C69.8589 8.64766 70.1025 9.18524 70.6065 9.63882C71.102 10.0924 71.8916 10.4368 72.9836 10.6888C74.0755 10.9408 74.7391 11.1676 74.9827 11.3775C75.2263 11.5875 75.3523 11.8311 75.3523 12.1167C75.3523 12.4359 75.2011 12.6963 74.9155 12.8979C74.6299 13.0995 74.2519 13.2003 73.7983 13.2003C73.3784 13.2003 72.992 13.1247 72.6308 12.9651C72.2612 12.8055 71.9336 12.4779 71.6312 11.9823C71.3624 11.5371 71.0433 11.3104 70.6905 11.3104C70.4217 11.3104 70.2033 11.4027 70.0269 11.5791C69.8421 11.7639 69.7581 11.9739 69.7581 12.2259C69.7581 12.8139 70.0773 13.3767 70.7241 13.8974C71.3708 14.4266 72.3368 14.687 73.6135 14.687C74.8735 14.687 75.8479 14.435 76.5534 13.9142C77.2506 13.4019 77.6034 12.6627 77.6034 11.6883C77.6034 10.462 76.5618 9.59682 74.4871 9.09284C73.412 8.83245 72.7232 8.61406 72.4208 8.44607C72.11 8.27807 71.9588 8.05128 71.9588 7.74889Z" fill="#026C97"/>
<path d="M87.7737 8.89965C87.7737 7.6817 87.4881 6.79133 86.9253 6.22015C86.3542 5.64898 85.615 5.36339 84.691 5.36339C83.5907 5.36339 82.6583 5.82537 81.8939 6.74933V4.03624C81.8939 3.46506 81.8603 3.05348 81.8099 2.80149C81.7595 2.5495 81.6335 2.34791 81.4404 2.18832C81.2472 2.03712 81.0036 1.95312 80.718 1.95312C80.4576 1.95312 80.2308 2.02872 80.046 2.16312C79.8528 2.29751 79.7268 2.4739 79.6764 2.6923C79.626 2.91069 79.6008 3.28867 79.6008 3.84305V12.9483C79.6008 13.6539 79.7016 14.1242 79.9032 14.351C80.1048 14.5778 80.382 14.687 80.7348 14.687C81.096 14.687 81.3816 14.5778 81.5831 14.3426C81.7847 14.1074 81.8939 13.6371 81.8939 12.9147V10.2604C81.8939 9.37843 81.9611 8.75685 82.0955 8.40407C82.2299 8.05128 82.4567 7.75729 82.7759 7.5137C83.0951 7.27851 83.4815 7.15252 83.9183 7.15252C84.4054 7.15252 84.7918 7.32051 85.069 7.6397C85.3462 7.95889 85.489 8.55526 85.489 9.42043V13.0827C85.489 13.7043 85.5814 14.1242 85.783 14.351C85.9762 14.5778 86.2534 14.687 86.6061 14.687C87.3789 14.687 87.7737 14.1578 87.7737 13.0827V8.89965Z" fill="#026C97"/>
<path d="M95.9533 13.3935C96.4657 14.2586 96.9529 14.687 97.4232 14.687C97.692 14.687 97.9272 14.5946 98.1456 14.4098C98.3556 14.225 98.4648 14.015 98.4648 13.7715C98.4648 13.5531 98.3808 13.2255 98.2212 12.8055C98.0616 12.3855 97.9944 11.8479 98.0196 11.176L98.07 9.02564C98.1036 7.5557 97.8012 6.58134 97.1544 6.09416C96.4993 5.60698 95.4745 5.36339 94.0802 5.36339C92.6942 5.36339 91.6779 5.63218 91.0395 6.16976C90.3927 6.70733 90.0735 7.27011 90.0735 7.85809C90.0735 8.11008 90.1659 8.32007 90.3675 8.47966C90.5607 8.63926 90.7791 8.71485 91.0227 8.71485C91.2831 8.71485 91.4847 8.64766 91.6275 8.50486C91.7619 8.37047 91.9215 8.13528 92.1063 7.79929C92.4254 7.21971 93.1058 6.92573 94.1474 6.92573C94.6933 6.92573 95.1049 7.05172 95.3737 7.29531C95.6425 7.5389 95.7769 8.00928 95.7853 8.69806C95.1973 8.86605 94.4162 9.05084 93.4586 9.25243C92.501 9.45403 91.8039 9.62202 91.3839 9.77321C90.9555 9.92441 90.5607 10.1932 90.1995 10.5796C89.8383 10.966 89.6619 11.4615 89.6619 12.0831C89.6619 12.8139 89.9223 13.4271 90.4599 13.931C90.9891 14.435 91.7535 14.687 92.7446 14.687C93.7862 14.687 94.8613 14.2586 95.9533 13.3935ZM95.8021 10.0756C95.8021 10.8316 95.7517 11.4027 95.6509 11.7807C95.5501 12.1671 95.2813 12.4947 94.8445 12.7719C94.4078 13.0491 93.9458 13.1835 93.4418 13.1835C92.963 13.1835 92.5934 13.0575 92.333 12.8055C92.0727 12.5535 91.9467 12.2679 91.9467 11.9319C91.9467 11.5455 92.1063 11.2516 92.4338 11.05C92.7614 10.8484 93.3158 10.672 94.1054 10.5124C94.8949 10.3612 95.4577 10.21 95.8021 10.0756Z" fill="#026C97"/>
<path d="M100.479 12.7887C100.479 13.3515 100.504 13.7379 100.563 13.9394C100.613 14.141 100.748 14.3174 100.949 14.4686C101.151 14.6198 101.378 14.687 101.63 14.687C101.89 14.687 102.125 14.6114 102.327 14.4434C102.529 14.2754 102.646 14.0906 102.697 13.889C102.747 13.6875 102.772 13.2927 102.772 12.7047V11.3775C102.772 9.79841 102.907 8.72325 103.175 8.16888C103.444 7.6145 103.847 7.33731 104.402 7.33731C104.62 7.33731 104.889 7.38771 105.208 7.4885C105.527 7.5893 105.754 7.6313 105.88 7.6313C106.098 7.6313 106.3 7.5473 106.493 7.36251C106.678 7.17772 106.779 6.95093 106.779 6.66534C106.779 6.26215 106.535 5.95137 106.065 5.71617C105.594 5.48098 105.132 5.36339 104.696 5.36339C103.856 5.36339 103.192 5.84217 102.722 6.79133C102.705 5.84217 102.335 5.36339 101.613 5.36339C100.857 5.36339 100.479 5.88417 100.479 6.90893V12.7887Z" fill="#026C97"/>
<path d="M114.11 10.588C114.883 10.588 115.387 10.4704 115.63 10.2268C115.874 9.9832 116 9.64722 116 9.22723C116 8.27807 115.63 7.39611 114.9 6.58134C114.16 5.77497 113.119 5.36339 111.775 5.36339C110.364 5.36339 109.255 5.80017 108.465 6.65694C107.676 7.5137 107.281 8.63926 107.281 10.0252C107.281 11.4027 107.676 12.5283 108.465 13.3935C109.255 14.2586 110.423 14.687 111.96 14.687C113.161 14.687 114.118 14.4098 114.824 13.8386C115.53 13.2675 115.882 12.7299 115.882 12.2091C115.882 12.0243 115.807 11.8647 115.656 11.7303C115.504 11.6043 115.328 11.5371 115.126 11.5371C114.958 11.5371 114.816 11.5707 114.681 11.6379C114.547 11.7051 114.345 11.8815 114.076 12.1587C113.396 12.8307 112.674 13.1667 111.909 13.1667C111.288 13.1667 110.75 12.9567 110.305 12.5199C109.86 12.0831 109.625 11.4447 109.608 10.588H114.11ZM109.608 9.28603C109.784 7.72369 110.481 6.94253 111.699 6.94253C112.27 6.94253 112.758 7.14412 113.152 7.5473C113.539 7.95049 113.749 8.53006 113.782 9.28603H109.608Z" fill="#026C97"/>
<path fill-rule="evenodd" clip-rule="evenodd" d="M4.30802 0.500011H24.5707C25.2247 0.503622 25.8508 0.764999 26.3132 1.22741C26.7756 1.68983 27.037 2.31597 27.0406 2.96991L27.0406 2.97287L27.0406 15.7565H25.9655V2.97447C25.9631 2.60411 25.8149 2.24958 25.553 1.98767C25.291 1.72575 24.9365 1.57757 24.5662 1.57517H4.28618C4.09862 1.56998 3.91193 1.60212 3.73704 1.67009C3.56216 1.73805 3.40262 1.84028 3.26779 1.97076C3.13296 2.10124 3.02556 2.25735 2.95189 2.42991C2.8784 2.60208 2.83996 2.78717 2.83883 2.97437V15.7565H1.76367V2.97011C1.76537 2.63926 1.83317 2.31208 1.96307 2.00779C2.09296 1.7035 2.28235 1.42823 2.5201 1.19815C2.75785 0.968067 3.03918 0.787807 3.34757 0.667954C3.6535 0.549053 3.97994 0.491982 4.30802 0.500011Z" fill="#026C97"/>
<path d="M18.6217 15.5522C19.068 15.568 19.5129 15.4957 19.9312 15.3394C20.3495 15.1831 20.7328 14.9459 21.0593 14.6414C21.3859 14.3368 21.6491 13.9709 21.8341 13.5645C22.0191 13.1581 22.1222 12.7192 22.1375 12.273C22.0901 11.3822 21.6954 10.5455 21.0381 9.94246C20.3808 9.33942 19.5133 9.01811 18.6217 9.04751C17.7213 9.01846 16.846 9.34711 16.1871 9.96161C15.5283 10.5761 15.1396 11.4265 15.106 12.3267C15.1533 13.2175 15.548 14.0542 16.2053 14.6573C16.8626 15.2603 17.7302 15.5816 18.6217 15.5522Z" fill="#026C97"/>
<path d="M27.5351 14.0684C24.4727 16.2789 20.6992 17.275 16.9448 16.8638C15.8697 16.8638 14.7192 16.7455 14.7192 18.4658V18.6593C16.375 19.7345 17.9447 19.7345 19.1274 17.8852C19.8907 16.7133 20.9229 17.1111 20.3746 18.6378C20.0598 19.5195 19.4744 20.2792 18.702 20.8083C17.9297 21.3373 17.0098 21.6088 16.0739 21.5837C15.6404 21.5786 15.2083 21.5318 14.7837 21.444C14.7837 23.261 14.7837 25.2178 14.7837 26.2069C14.7489 26.6182 14.8032 27.0322 14.9428 27.4206C15.0825 27.809 15.3043 28.1628 15.5931 28.4577C15.8819 28.7526 16.2309 28.9818 16.6163 29.1296C17.0017 29.2774 17.4145 29.3403 17.8264 29.3141C21.2347 29.3141 23.0302 26.1747 23.0302 22.8632C23.0199 21.612 22.8242 20.3692 22.4496 19.1754C24.7815 18.3495 26.8646 16.9435 28.5028 15.0898C29.0296 14.3157 28.406 13.4555 27.5351 14.0684Z" fill="#026C97"/>
<path fill-rule="evenodd" clip-rule="evenodd" d="M13.9772 12.2299C13.9662 12.6812 13.8655 13.1259 13.6812 13.538C13.4968 13.9502 13.2324 14.3216 12.9033 14.6307C12.5742 14.9398 12.187 15.1804 11.7641 15.3386C11.3412 15.4968 10.8911 15.5693 10.44 15.5521C9.99372 15.5679 9.54875 15.4956 9.13048 15.3393C8.71222 15.183 8.32886 14.9458 8.00234 14.6413C7.67581 14.3367 7.41252 13.9708 7.22753 13.5644C7.04253 13.158 6.93945 12.7191 6.92419 12.2729C6.97154 11.3821 7.36624 10.5454 8.02355 9.94236C8.68086 9.33932 9.5484 9.01801 10.44 9.04741C11.3281 9.01185 12.195 9.32469 12.8559 9.91921C13.5167 10.5137 13.919 11.3429 13.9772 12.2299ZM11.5151 16.8638C7.83812 17.1903 4.16476 16.1995 1.15059 14.0684C0.279717 13.4556 -0.322371 14.3157 0.247463 15.079C1.87876 16.9356 3.95927 18.3423 6.28984 19.1646C4.2578 26.0886 7.97784 29.3141 10.913 29.3034C11.3262 29.3345 11.7411 29.2755 12.1292 29.1304C12.5173 28.9853 12.8692 28.7577 13.1606 28.4632C13.452 28.1687 13.676 27.8144 13.817 27.4248C13.958 27.0353 14.0127 26.6197 13.9772 26.2069C13.9772 24.1426 13.9772 20.7129 13.9772 20.7129C14.6598 20.9163 15.3631 21.0425 16.0738 21.0892C16.9854 21.1614 17.8966 20.9448 18.6782 20.47C19.4597 19.9953 20.072 19.2865 20.4282 18.4443C21.0195 17.0251 20.0088 16.6165 19.224 17.7024C17.708 19.7882 15.762 19.3582 13.7514 17.4336C13.2031 16.9283 12.9021 16.7885 11.4936 16.8638H11.5151Z" fill="#D8711C"/>
</g>
<defs>
<clipPath id="clip0_112_6304">
<rect width="116" height="29" fill="white" transform="translate(0 0.5)"/>
</clipPath>
</defs>
</svg>
