<svg width="20" height="13" viewBox="0 0 20 13" fill="none" xmlns="http://www.w3.org/2000/svg">
<path d="M1 2.5H19C19.2652 2.5 19.5196 2.39464 19.7071 2.20711C19.8946 2.01957 20 1.76522 20 1.5C20 1.23478 19.8946 0.98043 19.7071 0.792893C19.5196 0.605357 19.2652 0.5 19 0.5H1C0.734784 0.5 0.48043 0.605357 0.292893 0.792893C0.105357 0.98043 0 1.23478 0 1.5C0 1.76522 0.105357 2.01957 0.292893 2.20711C0.48043 2.39464 0.734784 2.5 1 2.5ZM19 10.5H1C0.734784 10.5 0.48043 10.6054 0.292893 10.7929C0.105357 10.9804 0 11.2348 0 11.5C0 11.7652 0.105357 12.0196 0.292893 12.2071C0.48043 12.3946 0.734784 12.5 1 12.5H19C19.2652 12.5 19.5196 12.3946 19.7071 12.2071C19.8946 12.0196 20 11.7652 20 11.5C20 11.2348 19.8946 10.9804 19.7071 10.7929C19.5196 10.6054 19.2652 10.5 19 10.5ZM19 5.5H1C0.734784 5.5 0.48043 5.60536 0.292893 5.79289C0.105357 5.98043 0 6.23478 0 6.5C0 6.76522 0.105357 7.01957 0.292893 7.20711C0.48043 7.39464 0.734784 7.5 1 7.5H19C19.2652 7.5 19.5196 7.39464 19.7071 7.20711C19.8946 7.01957 20 6.76522 20 6.5C20 6.23478 19.8946 5.98043 19.7071 5.79289C19.5196 5.60536 19.2652 5.5 19 5.5Z" fill="#636C8B"/>
</svg>
