<svg width="31" height="31" viewBox="0 0 31 31" fill="none" xmlns="http://www.w3.org/2000/svg">
<circle cx="15.5" cy="15.5" r="15.5" fill="#0290C9"/>
<g clip-path="url(#clip0_112_6311)">
<path d="M21.5631 20.4397L21.5632 20.4397L21.5613 20.4379L19.1671 18.063C20.0999 16.8551 20.5491 15.341 20.4237 13.8172C20.2953 12.256 19.5736 10.8034 18.407 9.75794C17.2405 8.71252 15.7177 8.15378 14.1518 8.19663C12.5859 8.23948 11.096 8.88065 9.98831 9.98831C8.88065 11.096 8.23948 12.5859 8.19663 14.1518C8.15378 15.7177 8.71252 17.2405 9.75794 18.407C10.8034 19.5736 12.256 20.2953 13.8172 20.4237C15.3411 20.5491 16.8554 20.0998 18.0634 19.1668L20.4379 21.5413C20.4379 21.5414 20.438 21.5415 20.4381 21.5415C20.5116 21.6156 20.5991 21.6744 20.6955 21.7146C20.792 21.7548 20.8954 21.7755 20.9999 21.7755C21.1044 21.7755 21.2079 21.7548 21.3044 21.7146C21.4009 21.6744 21.4884 21.6155 21.562 21.5413L21.5631 21.5401C21.7058 21.3925 21.7856 21.1952 21.7856 20.9899C21.7856 20.7846 21.7058 20.5873 21.5631 20.4397ZM14.3333 18.8749C13.435 18.8749 12.5569 18.6086 11.8101 18.1095C11.0632 17.6105 10.4811 16.9012 10.1373 16.0713C9.79357 15.2414 9.70363 14.3282 9.87887 13.4472C10.0541 12.5662 10.4867 11.757 11.1218 11.1218C11.757 10.4867 12.5662 10.0541 13.4472 9.87887C14.3282 9.70363 15.2414 9.79357 16.0713 10.1373C16.9012 10.4811 17.6105 11.0632 18.1095 11.8101C18.6086 12.5569 18.8749 13.435 18.8749 14.3333C18.8749 15.5378 18.3964 16.693 17.5447 17.5447C16.693 18.3964 15.5378 18.8749 14.3333 18.8749Z" fill="white" stroke="white" stroke-width="0.25"/>
</g>
<defs>
<clipPath id="clip0_112_6311">
<rect width="16" height="16" fill="white" transform="translate(7 7)"/>
</clipPath>
</defs>
</svg>
