<svg width="14" height="14" viewBox="0 0 14 14" fill="none" xmlns="http://www.w3.org/2000/svg">
<path d="M4.80683 4.14001L6.3335 2.60668V9.00001C6.3335 9.17682 6.40373 9.34639 6.52876 9.47142C6.65378 9.59644 6.82335 9.66668 7.00016 9.66668C7.17697 9.66668 7.34654 9.59644 7.47157 9.47142C7.59659 9.34639 7.66683 9.17682 7.66683 9.00001V2.60668L9.1935 4.14001C9.25547 4.2025 9.32921 4.25209 9.41045 4.28594C9.49168 4.31979 9.57882 4.33721 9.66683 4.33721C9.75484 4.33721 9.84198 4.31979 9.92321 4.28594C10.0045 4.25209 10.0782 4.2025 10.1402 4.14001C10.2026 4.07804 10.2522 4.0043 10.2861 3.92306C10.3199 3.84182 10.3374 3.75469 10.3374 3.66668C10.3374 3.57867 10.3199 3.49153 10.2861 3.41029C10.2522 3.32906 10.2026 3.25532 10.1402 3.19335L7.4735 0.526679C7.41009 0.465985 7.33533 0.418409 7.2535 0.386679C7.09119 0.32 6.90914 0.32 6.74683 0.386679C6.665 0.418409 6.59023 0.465985 6.52683 0.526679L3.86016 3.19335C3.798 3.2555 3.7487 3.3293 3.71506 3.41051C3.68142 3.49173 3.6641 3.57877 3.6641 3.66668C3.6641 3.75459 3.68142 3.84163 3.71506 3.92285C3.7487 4.00406 3.798 4.07785 3.86016 4.14001C3.92232 4.20217 3.99612 4.25148 4.07733 4.28512C4.15854 4.31876 4.24559 4.33607 4.3335 4.33607C4.4214 4.33607 4.50845 4.31876 4.58966 4.28512C4.67088 4.25148 4.74467 4.20217 4.80683 4.14001ZM13.0002 8.33335C12.8234 8.33335 12.6538 8.40358 12.5288 8.52861C12.4037 8.65363 12.3335 8.8232 12.3335 9.00001V11.6667C12.3335 11.8435 12.2633 12.0131 12.1382 12.1381C12.0132 12.2631 11.8436 12.3333 11.6668 12.3333H2.3335C2.15669 12.3333 1.98712 12.2631 1.86209 12.1381C1.73707 12.0131 1.66683 11.8435 1.66683 11.6667V9.00001C1.66683 8.8232 1.59659 8.65363 1.47157 8.52861C1.34654 8.40358 1.17697 8.33335 1.00016 8.33335C0.823352 8.33335 0.653782 8.40358 0.528758 8.52861C0.403734 8.65363 0.333496 8.8232 0.333496 9.00001V11.6667C0.333496 12.1971 0.54421 12.7058 0.919283 13.0809C1.29436 13.456 1.80306 13.6667 2.3335 13.6667H11.6668C12.1973 13.6667 12.706 13.456 13.081 13.0809C13.4561 12.7058 13.6668 12.1971 13.6668 11.6667V9.00001C13.6668 8.8232 13.5966 8.65363 13.4716 8.52861C13.3465 8.40358 13.177 8.33335 13.0002 8.33335Z" fill="#303133"/>
</svg>
